<?xml version="1.0" encoding="UTF-8"?>
<!DOCTYPE svg PUBLIC "-//W3C//DTD SVG 1.1//EN" "http://www.w3.org/Graphics/SVG/1.1/DTD/svg11.dtd">
<!-- Creator: CorelDRAW 2018 (64-Bit) -->
<svg xmlns="http://www.w3.org/2000/svg" xml:space="preserve" width="8.5in" height="11in" version="1.1" style="shape-rendering:geometricPrecision; text-rendering:geometricPrecision; image-rendering:optimizeQuality; fill-rule:evenodd; clip-rule:evenodd"
viewBox="0 0 8500 11000"
 xmlns:xlink="http://www.w3.org/1999/xlink">
 <defs>
  <style type="text/css">
   <![CDATA[
    .fil6 {fill:#090909}
    .fil7 {fill:#0A3579}
    .fil4 {fill:#174AA5}
    .fil5 {fill:#316AC1}
    .fil3 {fill:#323232}
    .fil12 {fill:#60605E}
    .fil2 {fill:#CCCBCB}
    .fil11 {fill:#DB1422}
    .fil9 {fill:#E4AE88}
    .fil8 {fill:#F3F901}
    .fil10 {fill:#F7CB04}
    .fil13 {fill:#FA7083}
    .fil1 {fill:#FDD5B6}
    .fil0 {fill:white}
   ]]>
  </style>
 </defs>
 <g id="Layer_x0020_1">
  <metadata id="CorelCorpID_0Corel-Layer"/>
  <path class="fil0" d="M4044.1 2257.11l-10.95 4.23c-1.32,0.38 -2.48,0.64 -3.88,0.99l-38.6 8c-70.28,10.95 -101.57,23.31 -151.67,31.01l-173.34 57.18c-184.43,69.37 -305.31,134.13 -466.64,240.8 -80.83,53.45 -262.39,194.9 -323.76,262.17 -35.41,38.81 -159.58,158.29 -167.74,186.55 -11.61,24.15 -22.28,35.17 -36.96,73.72l-85.42 244.57c-8.42,46.41 -25.87,102.88 -37.55,168.65 -32.51,183.19 -32.76,327.52 -14.76,511.95 10.71,109.7 44.45,239.65 130.48,307.28l52.42 30.03c11.95,4.52 13.97,1 21.04,8.41 13.32,-12.4 9.93,4.16 6.15,-16.45 12.81,-38.57 97.13,-153.05 122.59,-185.95 126.11,-162.94 220.65,-261.54 375.28,-390.89 27.54,-23.04 54.27,-44.49 85.61,-67.6 111.74,-82.4 240.73,-165.06 381.26,-231.47 90.2,-42.62 364.78,-157.75 456.85,-160.14 12.31,-9.06 122.18,-25.27 147.93,-29.15 28.56,-167.35 190.52,-123.32 280.47,-43.94 18.78,16.57 38.48,37.59 55.36,61.99 23.47,33.93 16.45,41.55 49.92,67.18 23.83,18.25 66.31,64.91 86.19,89.64 6.69,8.32 15.68,25.85 23.93,29.48 20.35,13.91 66.74,-21.42 89.06,-37.3 112.3,-79.91 187.76,-163.65 235.33,-302.35 18.67,-54.44 15.88,-49.78 26.59,-108.54 18.03,-98.89 -4.6,-171.16 -17.41,-251.97 -6.18,-28.09 -58.37,-108.9 -75.76,-134.05 -62.99,-91.08 -118.37,-151.16 -202.92,-220.69 -205.52,-169.02 -457.02,-233.76 -725.89,-211.48 -29.75,2.46 -65.07,10.85 -93.22,8.13z"/>
  <path class="fil1" d="M4658.19 4893.64c-1.88,20.78 3.78,10.96 3.61,34.34 -28.2,21.74 -58.16,22.56 -106.28,27.3 -83.95,8.26 -55.16,-42.57 -51.6,-57.52 -19.42,-10.8 -26.12,-7.59 -41.79,-24.97 41.52,1.51 77.87,7.72 121.46,6.56 23.61,-0.63 99.62,-13.21 110.54,-7.46l-35.94 21.76zm-344 -88.43c69.93,65.64 132.26,-47.61 215.51,-39.61 57.1,5.49 42.02,45.91 107.9,16.19 42.32,-19.09 89.41,-14.33 116.28,11.6 -52.41,-16.07 -76.34,-8.02 -115.99,15.66 -56.79,33.93 -66.12,-8.85 -108.83,-13.69 -56.55,-6.4 -178.09,101.22 -214.87,9.84zm-1012.73 223.42c26.73,6.97 57.5,13.26 86.7,-4.8 0.91,-0.56 2,-1.3 2.85,-1.9l17.43 -15.82c10.06,102.01 -138.27,109.49 -148.63,14.93l29.1 -2.21c-13.66,-23 -94.8,-57.94 -105.67,-152.78 -9.41,-82.04 44.64,-135.52 126.14,-120.04l-26.73 7.17c18.48,14.11 86.08,16.74 113.85,120.48 19.48,72.79 -15.17,144.34 -92.72,132.82 0,0.02 6.95,11.68 -2.32,22.13zm1176.35 -390.91c-56.13,-11.12 -24.49,-142.66 43.45,-83.07 25.08,-5.67 41.25,-23.43 76.98,-8.48 19.58,8.19 38.22,26.8 37.31,52.79 -15.25,-24.12 -57.38,-40.9 -90.06,-22.38 -25.72,14.57 -44.46,47.46 -67.69,61.14zm-225.41 -109.56l-5.69 18.91 -135.59 54.2c-18.89,5.54 -20.26,7.38 -36.85,13.77 -10.32,3.98 -69.78,22.04 -76.51,21.86 -18.69,-91.89 -31.21,-190.87 29.03,-254.23 63.49,-66.78 169.04,-51 216.68,16.49 26.9,19.07 53.74,84.4 57.08,112.77 -13.03,-14.85 -22.24,-33.04 -24.86,-54.63 -12.07,13.82 -4.95,29.73 -8.34,44.13 -2.44,10.37 -9.36,21.04 -14.96,26.75zm313.72 -78.65l-6.13 -62.24c12.84,-4.41 9.07,-5.11 14.57,-10.09 -8.93,-6.04 -20.97,9.08 -1.99,-15.54 8.54,-11.06 37.41,-23.64 56.33,-26.43 39.52,-5.82 61.28,3.53 88.2,17.2 -54.98,-80.22 -107.72,-43.36 -136.56,-30.29 85.64,-93.92 217.31,56.69 227.75,152.22 -43.78,12.62 -26.32,0.88 -66.94,-2.61 -83.07,-7.12 -123.34,15.95 -144.87,17.24 -22.07,1.33 -41.83,-21.13 -30.36,-39.46zm-67.83 -239.59c-14.04,3.38 -21.58,0.71 -36.14,5.21l-214.13 75.9c7.25,-13.88 50.04,-71.68 57.85,-79.98l-380 115.41c8.04,-8.04 19.3,-18.68 26.94,-27.43l-18.28 3.05c-18.81,24.85 -51.92,21.04 -122.97,86.2 -201.27,184.57 -185.28,396.29 -199.14,421.06 4.57,29.77 18.11,39.82 5.92,62.54 -15.79,7.13 -38.2,9.31 -55.29,15.85 -17.73,6.78 -34.42,15.4 -51.98,18.33 -51.87,-115.88 7.49,-34.32 -90.59,-153.54 -55.87,-42.48 -47.71,-24.83 -72.88,-41.94 -5.63,-3.83 -4.85,-3.39 -8.48,-7.2 -34.24,-1.2 -108.49,-48.32 -193.68,5.56 -49.72,31.45 -69.15,103.95 -43.56,180.1 26.72,79.55 139.9,171.43 207.91,220.22 18.3,13.13 22.71,19.66 39.88,21.75 49.27,-34.21 84.81,-24.93 129.79,-52.12 40.48,-24.47 63.86,-57.64 86.2,-102.49 15.91,13.89 27.13,42.05 27.55,71.12 0.73,50.69 -17.31,58.5 -22.04,82.11 14.46,-11.89 17.93,-20.75 27.63,-38.04 6.26,-24.69 -1.81,-17.65 -2.88,-43.3 42.76,11.29 62.96,105.2 225.42,167.12 26.08,9.94 92.58,24.38 104.52,30.62l-26.94 9.65 78.81 1.59c41.61,-10.49 146,3.07 191.42,-1.78 52.1,-5.57 117.76,-20.96 170.66,-31.99 265.37,-55.33 456.83,-220.11 518.53,-487.82 16.99,-73.75 13.61,-156.47 24.39,-178.88 -11.98,-44.44 -45.83,-96.55 -64.3,-140.6 -24.33,-58.02 -37.98,-97.69 -29.97,-170.65l2.66 -12.14 0.9 -18.38c-12.73,15.96 -5.12,10.4 -21.65,13.11 -7.57,1.23 -21,1.25 -28.87,1.07 -20.24,-0.48 -36.98,-3.67 -58.72,-4.18 -41.41,-0.97 -84.17,5.21 -122.04,7.66 5.18,-22.81 7.02,-28.61 -17.17,-30.01l-45.28 7.23z"/>
  <path class="fil2" d="M3088.83 5117.13c37.91,-20.96 64.46,-44.63 88.75,-82.93 -25.57,-16.68 -60.81,-56.41 -79.35,-87.22 -23.49,-39.04 -36.01,-80.67 -33.74,-133.28 -14.57,1.63 -6.93,4.8 -18.04,-4.26 -6.53,-5.33 -11.39,-11.11 -18.79,-17.49 -13.93,-12.02 -26.36,-21.74 -36.13,-37.37l-72.2 -84.08c-21.91,-30.28 -42.07,-60.08 -64.15,-93.42l-102.72 -190.03c-8.89,-13.05 -2.79,-5.07 -9.5,-10.83 3.78,20.61 7.17,4.05 -6.15,16.45 -7.07,-7.41 -9.08,-3.9 -21.04,-8.41l-52.42 -30.03c-86.04,-67.63 -119.77,-197.57 -130.48,-307.28 -18,-184.43 -17.76,-328.76 14.76,-511.95 11.68,-65.78 29.13,-122.24 37.55,-168.65l85.42 -244.57c14.69,-38.56 25.35,-49.57 36.96,-73.72 -31.83,12.76 -178.64,231.45 -198.27,263.26 -29.81,48.31 -57.03,95.79 -86.91,143.31 -6.93,11.02 -8.77,21.83 -17.49,36.24l-57.26 118.48c-94.58,224.24 -179.63,459.23 -188.44,735.02 -10.87,340.28 136.39,633 378.06,771.56 110.57,63.39 250.91,85.54 378.23,62.48 32.53,-5.89 62.97,-14.41 92.19,-25.27 29.71,-11.04 56.71,-27.65 81.2,-36.01z"/>
  <path class="fil0" d="M4201.39 5731.14c8.8,3.96 12.57,3.35 19.91,9.17l23.57 6.3c113.69,72.78 109.45,249.46 -21.54,322.81l-0.54 -36.76 -1.57 -41.33c-13.69,14.46 -34.96,35.02 -56.59,39.78 43.26,-109.29 3.73,-72.14 -12.01,-152.87 -15.31,-56.05 -23.3,-43.4 -5.85,-114.74l3.7 -17.15 -35.21 -2.23 -1.63 47.46c-8.62,55.1 -44.97,246.19 -66.31,280.14 -17.19,-17.81 -90.89,-131.44 -98.12,-160.04 -11.5,-45.43 20.72,-69.85 40.19,-88.18 17.95,-16.91 46.22,-46.56 66.01,-60.4 8.84,-12.93 17.43,-10.86 31.36,-31.61l-15.83 -21.22c-24.09,-24.78 -10.2,-45.42 -0.59,-69.26l-27.31 -1.23c-28.41,-7.34 -34.96,-13.02 -43.98,-33.3 -6.3,-4.39 -3.97,4.78 -9.12,-9.75 -45.31,-11.37 -71.96,19.81 -166.7,10.58 -45.91,-4.47 -102.41,-21.39 -140.38,-37.97 -21.42,-9.35 -41.13,-17.9 -61.22,-29.09l-108.43 -71.38c-56.07,-37.79 -23.41,-43.58 -50.87,-44.35 -53.77,47.48 -284.85,212.85 -306.54,254.82 -38.13,73.76 70.67,305.68 117.24,390.79l12.72 18.27c15.25,-23.16 16.69,-36.54 35.06,-59.22 46.24,-57.09 107.48,-84.86 190.7,-87.38l-54.52 -72.65c-26.43,5.71 -39.51,15.34 -74.33,18.45 7.52,-34.71 19.55,-30.07 50.41,-40.87 -18.67,-11.73 -30.91,-13.05 -50.88,-22.96 49.63,-134.26 170.84,-79.44 221.75,-169.99 2.05,-3.64 8.87,-14.38 11.37,-15.91 22.87,-13.96 17.02,2.25 17.61,2.98 14.13,77.28 27.19,167.83 26.99,254.57 0.79,1.3 1.65,1.79 2,4.11 0.34,2.25 1.44,2.96 1.89,4.01 18.5,43.61 16.8,96.99 49.8,135.2 23.75,27.5 78.3,18.76 92.25,52.65 7.73,18.79 -4.32,30.45 -7.57,39.36 9.8,3.95 12.31,5.39 18.44,12.79 12.73,15.36 8.48,30.37 -5.13,42.67 -37.08,33.47 -14.56,58.79 -79.84,58.57 -24.71,-0.08 -35.53,0.08 -31.81,19.39 3.17,16.5 -0.26,1.74 17.75,22.87l-3.46 13.98c141.43,24.61 251.96,35.91 403.65,23.96 129.25,-10.18 254.5,-31.91 380.11,-51.74 6.25,-4.74 2.48,-3.26 12.29,-6.2 13.29,-3.98 1.3,-0.69 11.84,-2.04 22.23,-2.83 9.69,3.89 26.68,-5.66 8.19,-19.19 14.31,-20.77 21.53,-35.44 -33.67,9.91 -50.31,17.39 -89.51,20.96 2.57,-29.58 17.77,-41.72 29.12,-64.68 -19.31,3.24 -25.32,1.8 -39.9,-4.11 -9.7,-30.43 -0.15,-39.88 10.14,-61.38l-44.75 13.51 4.95 -45.39c-11.9,-15.61 -0.42,-1.62 -12.53,-10.91 -38.89,-29.81 8.11,-40 10.86,-48.53 0.55,-1.7 2.22,-1.44 3.25,-2.26l-8.18 -12.09c-3.31,-5.36 -4.88,-7.29 -6.11,-12.23 -6.43,-25.94 10.04,-38.09 21.02,-47.39 8.86,-7.5 8.3,-9.31 21.41,-13.88 35.51,-12.39 76.9,-17.17 79.43,-62.99 2.33,-42.26 -25.79,-109.66 6.49,-186.11 7.65,-18.11 15.86,-25.24 21.1,-43.34l1.85 -9.57c-7.2,-10.17 -14.44,15.69 -4.96,-18.3 39.69,-2.53 37.1,23.72 56.57,56.59 89.41,150.96 161.59,102.98 150.44,200.58 21.16,8.57 15.48,2.42 15.52,9.65 -14.28,7.68 -12.46,6.79 -29.27,5.36 -21.68,-3.52 -42.06,4.07 -60.68,12.3l4.32 8.88c27.86,24.4 47.99,47.3 82.65,73.77 16.86,12.87 77.7,56.39 101.21,59.15 50.65,-29.49 118.58,-200.15 132.48,-221.44 11.88,-18.2 15.28,-16.37 14.38,-34.16 -3.25,-32.82 -112.65,-150.39 -133.62,-170.34 -30.94,-29.44 -220.13,-188.63 -267.44,-197.44 -16.08,-2.99 -332.76,129.36 -333.16,132.89l-3.56 10.09c-2.98,8.62 -1.14,5.15 -4.78,13.28 -12.31,27.5 -36.97,41.76 -70.19,46.73 23.91,61.03 0.14,79.67 -27.51,110.02z"/>
  <path class="fil3" d="M3270.44 4596.71l46.16 -41.7c15.28,-14.84 -40.74,7.37 87.41,-87.86 80.7,-59.98 107.46,-74.21 175.68,-121.75 46.28,-32.24 180.42,-109.67 235.01,-134.9 103.33,-47.75 147.68,-71.61 262.59,-111.39 176.92,-61.23 396.76,-89.88 588.28,-64.09l30.62 7.09c38.91,11.96 72.11,6.22 123.39,66.46 20.68,24.3 44.52,75.43 28.11,116.62 -18.05,5.91 4.31,4.59 -9.94,-0.08 -4.12,-1.35 -7.96,-4.65 -10.46,-6.74l-54.34 -44.61c-23.32,-17.14 -63.31,-30.57 -98.74,-36 -200.21,-30.67 -601.78,60.32 -789.88,130.4 -91.4,34.06 -197.33,79.15 -281.47,123.96 -81.08,43.18 -181.18,103.42 -252.8,152.14 -19.52,13.28 -61.37,51.01 -79.61,52.44zm734.24 -677.2c-28.76,13.1 -68.3,29.24 -92.49,41.34 -28.24,14.14 -58.89,31.44 -88.08,47.19 -27.34,14.74 -59.81,34.94 -84.18,51.37 -19.35,13.04 -64.06,47.7 -78.69,51.58l-183.18 162 -77.2 92.12c-52.7,67.14 -92.34,127.34 -141.81,196.34 -31.61,44.09 -40.77,58.85 -64.67,107.13 45.33,-7.03 100.82,4.26 138.57,25.56 13.43,7.58 15.69,0.15 6.17,9.25 3.63,3.81 2.85,3.37 8.48,7.2 25.17,17.11 17,-0.55 72.88,41.94 5.18,-8.48 1.82,-12.75 29.38,18.37 36.98,41.78 49.6,52.79 70.48,115.59l80.98 -33.7c-5.85,-46.13 -27.64,-59.7 -25.65,-161.19 1.15,-58.5 13.1,-111.39 32.61,-159.69 66.01,-163.42 220.18,-259.8 393.9,-269.42 103.74,-5.75 304.78,-94.8 375.04,-99.46 -14.66,32.08 -44.62,51.36 -58,76.22l172.03 -47.25 7.04 17.91 45.28 -7.23 33.53 -4.23c80.45,-6.04 80.22,-8.25 168.84,-4.62 30.4,1.24 42.79,-6.93 46.08,21.2l-0.9 18.38c71.31,0.97 79.5,34.1 210.03,1.53 33.12,-8.27 59.75,-21.83 85.88,-35.8 60.35,-32.28 70.11,-52.31 98.77,-86.14 11.99,-14.15 15.97,-13.35 27.9,-30.82 18.03,-26.43 35.06,-56.83 21.48,-95.92 -16.12,-46.37 -105.05,-79.18 -149.49,-89.85 -28.68,-7.14 -56.11,-19.57 -85.91,-26.99 -27.81,-6.93 -62.29,-13.48 -88.46,-22.42 -21.87,-9.86 -157.51,-27.19 -192.48,-30.2 -75.54,-6.49 -141.89,-1.77 -215.43,-3.62 -79.33,-1.61 -191.86,17.31 -266.46,34.67 -40.19,9.35 -81.63,19.33 -120.62,32.51 -35.87,12.11 -80.57,31.07 -111.63,39.15z"/>
  <path class="fil0" d="M3626.37 6396.11c7.23,8.98 18.07,43.71 15.49,67.72 -5.01,46.61 -20.04,70.78 -9.61,137.66 11.06,70.95 41.19,130.01 80.12,172.26 -10.65,7.74 -10.13,-1.5 -16.62,14.8 -6.52,16.35 -2.32,17.56 4.57,29.7l129.8 24.78 -8.59 5.52c6.36,7.58 3.1,7 13.26,10.82 -12.87,12.36 -50.92,33.69 -76.87,35.3l16.28 4.14c30.11,6.06 88.5,-14.42 117.28,-24.57 41.58,-14.67 68.48,-17.83 70.54,-70.56 -14.02,-13.62 0.41,5.47 -42,-1.84l-6.81 -27.72c19.6,-14.3 33.63,-9.26 31.47,-40.94 -6.24,-4.4 -17.03,-6.62 -29.72,-18.02 1.47,-51.06 60.45,-7.57 91.05,-54.92 13.2,-20.43 8.12,-34.94 18,-54.52 10.4,-20.62 21.18,-33.93 39.26,-39.18 17.11,-37.87 26.62,-70.46 84.51,-41.9 40.62,20.04 41.66,46.52 65.29,80.84 22.22,17.56 35.82,58.65 45.63,78.04 24.69,48.84 46.2,78.79 98.32,92.16 9.31,2.39 4.46,-0.63 9.54,2.58 -4.78,2.93 -14.71,11.28 -15.62,11.65 -0.46,0.19 -1.72,0.42 -2.2,0.58l-5.07 0.82c-14.88,5.81 -7.81,-2.67 -13.25,10.67 14.61,6.82 18.9,2.52 31.28,9.19 -5.41,5.03 -4.65,2.08 -6.17,2.24 -7.77,0.83 -4.54,-3.31 -11.72,0.91 17.96,30.3 6.74,-13.67 28.9,48.43 69.27,8.07 93.92,5.91 154.7,-9.43 101.46,-25.59 47.05,-45.25 66.67,-108.65l-24.26 3.65c-51.53,-2.83 -54.56,3.96 -109.8,-9.75 -40.7,-10.09 -52.04,-22.76 -83.17,-37.39 27.61,-10.12 126.83,26.78 169.06,17.65l17.85 -3.46c-14.89,-3.5 -18.99,-6.01 -34.37,-9.78 -19.41,-4.76 -16.88,-3.26 -22.02,-21.96l16.19 -10.4c8.39,-4.44 14.79,-5.79 21.57,-9.31l34.6 -29.35c47.44,-66.59 -24.35,-103.74 -35.56,-184.28 -6.52,-46.83 -11.39,-60.99 -53.04,-76.28 -47.94,-17.61 -428,12.72 -473.95,-16.03 -53.71,2.18 -126.67,-5.86 -178.47,-16.04 -26.73,-5.25 -52,-10.97 -75.77,-17.97 -21.18,-6.24 -53.7,-20.94 -71.02,-21.92 -13.93,-1.47 -5.26,-1.13 -11.56,0.81 -1.78,0.55 -4.89,6.01 -6.09,3.87 -0.56,-0.98 -1.7,1.87 -2.65,2.71l-56.05 -10.5 10.81 97.17z"/>
  <path class="fil4" d="M4164.53 3340.16l-103.39 35.93c-58.45,18.77 -301.72,110.65 -322.46,137.5l14.81 -3.93c27.88,73.28 213.68,364.6 262.49,401.33l-11.3 8.53c31.06,-8.08 75.76,-27.04 111.63,-39.15 38.99,-13.18 80.43,-23.16 120.62,-32.51 74.61,-17.35 187.13,-36.28 266.46,-34.67 32.7,-17.18 99.45,2.81 138.28,-5.06 21.55,-4.36 65.69,-51.46 75.35,-64.65 54.1,-73.76 50.54,-131.06 44.61,-237.46 -3.64,-15.05 -57.1,-79.85 -70.16,-89.12 13.75,89.63 31.36,166.1 -41.03,260.15 -20.73,26.93 -56.99,59.15 -97.43,69.03 -49.12,12 -101.47,3.49 -131.55,-24.57 -44.92,-30.97 -65.45,-56.85 -91,-114.7 -11.85,-38.29 -18.56,-64.68 -21.81,-109.46 -2.98,-40.89 4.95,-95.51 0.73,-129.17 -3.11,-24.21 1.85,-35.5 3.06,-57.17 -25.75,3.87 -135.62,20.09 -147.93,29.15z"/>
  <path class="fil5" d="M3097.91 3970.51c1.5,11.3 39.49,5.86 75.13,6.43 143,2.27 336.15,53.59 457.26,126.48 4.63,2.79 11.63,7.54 14.59,8.43 11.49,3.46 6.33,4.12 16.35,-0.85 14.64,-3.87 59.34,-38.54 78.69,-51.58 24.37,-16.43 56.84,-36.63 84.18,-51.37 29.19,-15.74 59.83,-33.05 88.08,-47.19 24.19,-12.1 63.73,-28.24 92.49,-41.34l11.3 -8.53c-48.81,-36.73 -234.61,-328.05 -262.49,-401.33l-14.81 3.93c-48.22,5.04 -298.98,172.1 -344.62,204.72 -56.16,40.15 -102.55,78.99 -154.7,120.17 -26.59,21 -48.47,44.23 -74.12,65.61 -12.87,10.72 -59.2,54.18 -67.33,66.43z"/>
  <path class="fil4" d="M2782 4352.64c-3.67,19.87 -2.9,6.23 15.63,12.03l59.89 21.57c140.59,54.19 325.1,12.69 462.07,-43.6l158.47 -69.65 183.18 -162c-10.01,4.98 -4.85,4.31 -16.35,0.85 -2.96,-0.89 -9.95,-5.64 -14.59,-8.43 -121.11,-72.89 -314.26,-124.21 -457.26,-126.48 -35.64,-0.56 -73.63,4.87 -75.13,-6.43 -25.65,16.1 -153.42,163.33 -169.68,183.22 -29.51,36.08 -131.74,163.69 -146.23,198.92z"/>
  <path class="fil6" d="M4209.3 5553.19c5.26,-10.12 53.56,-61.05 63.99,-67.39 20.8,-12.63 78.7,-2.24 188.75,-73.15 36.24,-23.35 42.28,-30.04 71.98,-58.34 23.8,2.24 89,16.09 97.7,35.86l-422.43 163.02zm-238.33 -56.68c34.85,1.04 41.81,15.43 65.41,30.93 12.93,8.49 42.01,24.81 51.38,36.98 -100.65,6.72 -239.61,-21.19 -328.43,-52.22 -77.03,-26.91 -203.66,-84.74 -254.74,-126.53 8.56,-15.78 26.39,-24.59 44.91,-29.81 32.25,44.38 176.61,99.05 255.18,118.48 56.39,13.95 106.97,20.4 166.29,22.18zm223.7 -211.3c187.98,-3.58 100.5,-31 221.23,36.1l107.37 29.85c-36.43,22.41 -188.7,102.5 -226.89,111.85 11.91,-19.61 67.63,-77.84 98.07,-123.83 -26.79,15.5 -52.58,62.32 -79.69,80.8 -32.59,30.36 -134.35,129.29 -163.78,146.53l-94.66 -54.78c-23.33,-15.03 -11.63,-7.33 -18,-20.65 -29.17,-5.08 -118.9,-67.32 -140.02,-87.65 68.81,6.78 122.29,40.06 202.96,45.59 97.58,6.69 133.84,-12.94 211.25,-38.24 -50.52,-7.42 -168.35,29.31 -211.09,5 -34.69,7.43 -76.73,-6.74 -111.37,-13.35 -24.33,-4.64 -103.28,-5.69 -111.83,-9 -11.89,-4.6 -67.57,-43.55 -75.73,-51.41 -30.99,-29.83 -22.69,-49.96 -9.02,-89.34 62.44,6.45 82.6,19.76 191.76,26.68 70.37,4.46 138.7,6.37 209.42,5.85zm-644 68.9c2.97,-3.42 2.11,-2.83 7.28,-7 5.44,-4.4 0,-0.26 5.33,-3.88l97.43 -51.32c30.17,-13.62 95.44,-45.24 130.84,-43.5 -8.14,24.95 -27.26,53.11 -10.39,83.3 22.81,40.82 146.2,110.13 173.6,139.27l4.91 6.33c-90.18,-7.33 -347.97,-83.89 -409,-123.19zm1332.06 -797.31c20.71,30.54 34.35,126.41 33.74,175.54 -2.12,171.65 -102.21,311.91 -236.92,397.78 -88.64,56.5 -187.02,93.31 -309.21,113.77 -53.04,8.89 -364.28,32.66 -392.6,13.38l-78.81 -1.59c-51.75,-5.68 -99.02,-13.2 -142.29,-29.96 -19.42,-7.52 -41.31,-18.28 -57.16,-28.42 -18.51,-11.85 -32.32,-25.68 -47.58,-35.39 50.56,55.54 69.39,50.61 112.11,79.52l-22.54 9.83c-6.18,1.81 -13.5,3.56 -20.84,5.75 -62.97,18.84 -230.54,93.33 -257.63,128.2l21.46 15.99c37.86,22.2 68.98,45.16 110.33,67.41 35.19,18.93 77,38.97 116.48,54.31 85.13,33.08 178.12,58.63 278.81,65.47l128.52 4.87c-10.54,13.76 -23.99,23.71 -39.93,33.44l-76.41 -31.81c-5.06,7.2 -6.85,-10.48 -3.21,11.57 9.01,20.28 15.56,25.96 43.98,33.3 70.25,-0.99 112.07,-53.58 141.6,-31.3 9.95,7.52 19.36,26.1 21.2,38.74 5.78,39.7 -17.38,65.69 -45.29,77.04 -34.94,14.21 -64.98,11.57 -89.61,-13.99l15.83 21.22c8.32,3.59 18.98,7.68 28.5,12.63l35.21 2.23c26.22,-3.98 30.4,-10.36 50.91,-15.21 27.65,-30.34 51.42,-48.99 27.51,-110.02 33.22,-4.97 57.88,-19.24 70.19,-46.73 3.64,-8.13 1.81,-4.66 4.78,-13.28l3.56 -10.09c0.39,-3.54 317.07,-135.89 333.16,-132.89 47.31,8.81 236.51,168 267.44,197.44 20.97,19.95 130.37,137.52 133.62,170.34l12.27 17.94c28.95,72 -42.78,148.52 -87.15,194.81 -19.44,20.29 -32.57,45.95 -49.7,56.13l-22.29 -13.28c-23.51,-2.76 -84.35,-46.28 -101.21,-59.15 -34.66,-26.47 -54.79,-49.37 -82.65,-73.77 -15.47,20.93 58.16,90.83 72.46,101.92 22.69,17.59 60.9,38.38 90.39,45.41 11.39,2.72 26.59,3.79 36.49,11.19l-42.77 49.36c-22.83,-6.23 -94.33,-64.09 -107.54,-77.83 -33.43,-34.79 -50.42,-62.9 -81.73,-99.7 -6.03,5.24 -6.66,-13.1 -4.5,9.67 11.4,65.13 82.41,133.89 135.48,156.52l51.41 18.22c-5.69,20.37 -41.61,56.65 -54.07,74.41 -46.24,-10.36 -110.51,-79.56 -131.55,-116.19 -9.17,-24.46 -26.02,-45.31 -32.28,-74.82 -6.76,-31.9 1.09,-65.71 24.31,-77.85 8,-16.97 22.57,-22.48 39.57,-29.19 18.62,-8.22 39,-15.82 60.68,-12.3l-28.23 -8.01c-14.55,-41.21 -53.25,-77.45 -98.65,-88.49l6.54 18.22c14.23,6.94 44.12,54.05 81.2,71.82 -9.91,7.8 -20.84,8.98 -32.38,13.46 -42.09,16.33 -47.63,36.5 -66.06,59.47l-2.78 -149.54c-5.32,-40.79 -13.54,-128.85 -38.89,-167.6 -10.27,-15.7 -5.84,-14.51 -9.04,-3.21l-1.85 9.57c4.65,5.52 1.61,0.03 5.31,9.55 8.15,20.98 14.89,148.59 16.72,171.21 4.21,51.9 25.36,134.32 25.08,175.2 -36.23,3.03 -79.29,10.15 -112.44,23.03 -26.54,10.31 -41.2,19.58 -57.38,40.73l-14.05 20 -4.95 45.39 44.75 -13.51c-10.29,21.5 -19.85,30.95 -10.14,61.38 14.58,5.91 20.59,7.34 39.9,4.11 -11.35,22.96 -26.55,35.1 -29.12,64.68 39.2,-3.57 55.84,-11.06 89.51,-20.96 -7.22,14.67 -13.34,16.24 -21.53,35.44 -1.51,43.07 19.67,40.34 54.56,30.94 1.54,94.91 16.08,185.32 38.25,276.61 7.39,30.42 20.33,60 25.65,89l-45.44 -16.19c30.52,0.76 72.43,40.54 56.75,80.09 -6.61,16.67 -20.74,27.79 -29.37,42.83 -14.85,25.87 -2.33,39.88 6.72,56.91 -48.69,22.97 -89.96,42.6 -155.56,50.55 -115.26,13.97 -142.85,-11.97 -194.72,-12.46 -20.4,-3.47 -2.03,-0.89 -10.79,2.87 31.64,15.05 0.66,26.48 76.15,33.9 88.98,8.75 202.65,1.69 272.46,-53 12.99,-0.66 38.68,-17.8 41.78,-29.96 -9.82,-6.08 -16.37,-4.72 -28.05,-12.12 -3.83,-17.64 -4.88,-15.57 3.13,-31.2 8.72,-17.62 21.42,-29.89 27.28,-47.96 10.2,-31.42 -6.24,-36.52 -13.56,-55.96 -4.12,-10.96 -10.38,-111.52 -13.56,-134.57 -5.96,-43.19 -13.95,-84.48 -23.23,-125.43 -7.43,-32.76 -30.3,-93.91 -33,-117.15 23.11,-31.8 23.17,-36.77 73.8,-41.26 41.5,-3.69 54.75,-11.13 62.88,-46.94 -37.26,37.42 -34.43,20.22 -89.55,22.2 -54.59,1.96 -47.46,35.67 -77.97,48.59 8.08,-44.52 42.12,-71.6 53.78,-94.03l-66.1 21.59 -33.34 10.5c15.17,-43.12 49.4,-47.8 65.2,-73.47 -38.98,2.06 -64.64,13.27 -98.87,17.68 4.35,-17.43 13.21,-27.86 23.68,-38.9 19.53,-20.6 27.78,-18.7 36.26,-35.26l-81.05 11.5c18.74,-41.63 136.43,-80.76 151.2,-82.19 10.95,28.17 14.36,46.71 27.63,72.13 11.96,22.9 31.34,45.65 39.72,62.92l51.69 48.77c21.06,13.35 38.7,29.93 65.73,38.27 31.44,-24.52 144.3,-173.44 175.63,-208.05 50.13,-55.37 143.48,-146 80.52,-256.12 -68.74,-120.24 -310.37,-321.37 -422,-345.32l7.15 -11.53c5.1,-9.83 1.84,2.19 4.56,-10.57 4.72,-22.18 -17.71,-36.46 -36.24,-42.33 -29.76,-9.42 -54.86,-11.2 -86.19,-17.72 -33.03,-6.87 -62.09,-7.71 -82.81,-25.11 -18.86,-15.85 -37.01,-30.65 -65.48,-39.56 19.5,-10.89 107.62,-21.58 173.61,-48.28 55.39,-22.41 97.99,-43.08 143.03,-73.34 197.15,-132.44 301.28,-364.5 204.37,-591.89 -21.59,-50.65 -48.81,-94.89 -72.93,-143.2 -50.54,-101.28 -30.06,-103.91 -43.68,-170.55 -8,72.96 5.65,112.63 29.97,170.65 18.47,44.05 52.32,96.15 64.3,140.6z"/>
  <path class="fil2" d="M4808.32 3515.36c8.31,24.58 24.4,42.5 36.93,67.26 9.8,19.37 20.15,42.28 28.6,65.8 15.41,42.86 35.54,108.06 33.25,157.15l4.21 41.43c26.17,8.94 60.65,15.49 88.46,22.42 29.8,7.42 57.24,19.85 85.91,26.99 9.04,-11.46 16.74,-23.48 23.71,-37.37 11.78,-34.22 34.68,-72.6 49.35,-111.9 85.77,-229.75 119.81,-446.93 67.48,-693.77 -7,-33.04 -54.34,-209.04 -84.33,-238.18 12.81,80.81 35.44,153.09 17.41,251.97 -10.71,58.76 -7.93,54.09 -26.59,108.54 -47.57,138.7 -123.03,222.44 -235.33,302.35 -22.32,15.88 -68.71,51.21 -89.06,37.3z"/>
  <path class="fil7" d="M2782 4352.64c-7.5,5.91 -7.61,1.74 -10.44,15.27 -3.14,15.02 8.04,28.28 14.88,43.61 7.35,16.48 14.8,33.85 24.17,52.4 26.42,52.32 134.09,244.37 180.9,290.65 9.77,15.63 22.2,25.35 36.13,37.37 7.4,6.38 12.26,12.16 18.79,17.49 11.11,9.07 3.47,5.9 18.04,4.26 1.26,-40.47 17.14,-75.67 38.48,-97.46 11.63,-11.89 21.04,-21.12 37.86,-30.07 20.09,-10.7 35.14,-9.07 53.57,-17.59 23.9,-48.28 33.06,-63.04 64.67,-107.13 49.47,-69 89.1,-129.2 141.81,-196.34l77.2 -92.12 -158.47 69.65c-136.98,56.29 -321.49,97.8 -462.07,43.6l-59.89 -21.57c-18.53,-5.8 -19.3,7.85 -15.63,-12.03z"/>
  <path class="fil6" d="M3270.44 4596.71c18.24,-1.43 60.09,-39.15 79.61,-52.44 71.62,-48.72 171.72,-108.96 252.8,-152.14 84.14,-44.81 190.07,-89.91 281.47,-123.96 188.09,-70.08 589.67,-161.07 789.88,-130.4 35.43,5.43 75.42,18.86 98.74,36l54.34 44.61c2.5,2.09 6.34,5.39 10.46,6.74 14.25,4.67 -8.11,5.98 9.94,0.08 16.41,-41.19 -7.43,-92.32 -28.11,-116.62 -51.28,-60.24 -84.47,-54.5 -123.39,-66.46l-30.62 -7.09c-191.52,-25.79 -411.36,2.86 -588.28,64.09 -114.91,39.78 -159.26,63.63 -262.59,111.39 -54.59,25.22 -188.73,102.65 -235.01,134.9 -68.22,47.54 -94.98,61.77 -175.68,121.75 -128.15,95.24 -72.13,73.02 -87.41,87.86l-46.16 41.7z"/>
  <path class="fil6" d="M3088.83 5117.13c-24.5,8.36 -51.5,24.97 -81.2,36.01 -29.21,10.86 -59.66,19.38 -92.19,25.27 -127.32,23.05 -267.65,0.91 -378.23,-62.48 -241.66,-138.55 -388.92,-431.28 -378.06,-771.56 8.81,-275.8 93.87,-510.78 188.44,-735.02l57.26 -118.48c8.72,-14.41 10.56,-25.22 17.49,-36.24 29.89,-47.53 57.1,-95 86.91,-143.31 19.63,-31.81 166.44,-250.5 198.27,-263.26 8.15,-28.26 132.32,-147.74 167.74,-186.55 61.37,-67.26 242.93,-208.72 323.76,-262.17 161.32,-106.67 282.21,-171.44 466.64,-240.8l173.34 -57.18 2.09 -20.87c-5.82,-4.5 9.98,-5.72 -9.06,-3.24 -54.61,3.35 -213.09,67.68 -266.13,89.59 -459.01,189.65 -875.22,569.26 -1119.28,994.27 -219.2,381.71 -417.79,938.9 -240.31,1382.58 103.01,257.52 323.46,453.9 606.26,449.81 176.37,-2.56 239.77,-66.31 276.24,-76.37z"/>
  <path class="fil8" d="M4425.13 3266.26c29.56,-13.22 53.34,11.56 57.53,38.46 3.35,21.51 -20.26,241.48 -42.98,252.14 -67.58,31.7 -82.46,-260.23 -14.56,-290.6zm-115.73 101.93c4.22,33.65 -3.71,88.28 -0.73,129.17 3.26,44.78 9.97,71.17 21.81,109.46l14.28 -12.05c29.59,89.76 203.59,119.63 264.56,4.9 64.73,-121.81 3.66,-215.44 -51.31,-322.02 -13.3,-28.62 -111.67,-73.08 -166.16,-57.88 -29.96,8.36 -45.57,31.22 -57.55,59.72 -11.6,27.61 -14.15,63.11 -24.9,88.7z"/>
  <path class="fil6" d="M3394.11 6156.74c9.83,10.71 9.52,9.98 15.62,22.11l-43.57 28.02c2.69,-12 4.14,-16.57 9.54,-27.77 1.91,-3.95 4.12,-8.87 6.28,-11.93 10,-14.19 6.14,-7.19 12.13,-10.44zm-81.31 -23.53l-12.13 -14.17c-5.04,-8.14 -6.96,-12.91 -9.8,-21.31 43.89,-64.28 143.11,-132.89 229.23,-140.2l33.43 40.66c-120.68,-0.04 -196.43,57.5 -240.72,135.03zm247.5 594.47c-1.41,22.51 -1.65,5.4 4.75,12.1 5.3,-26.59 32.17,-73.88 48.03,-156.95 13.3,-69.68 12.45,-116.92 13.3,-186.73l-10.81 -97.17 56.05 10.5c-0.35,-19.59 -2.69,-32.71 -11.46,-49.99 -10.09,-19.85 -13.45,-22.58 -35.23,-29.93l-26.24 -3.83c0.94,1.73 2.64,1.48 3.26,3.27l9.91 6.37c15.3,8.75 25.54,9.39 31.56,39.71 -70.43,-12.33 -206.06,-84.93 -249.29,-118.3 3.14,-23.8 45.37,-59.84 67.37,-68.74 8.51,-17.53 61.1,-32.97 87.29,-36.28l-12.45 -3.54c-66.96,8.54 -120.88,43.19 -158.41,92.19 -9.98,13.04 -23.43,41.17 -33.06,51.53 -8.28,-14.94 -17.55,-27.62 -25.54,-43.48 30.98,-37.2 158.13,-143.62 246.09,-140.75 8.62,12.59 18.65,19.65 24.61,37.44l-10.81 11.61c59.48,45.59 172.98,12.4 179.37,64.73 -47.63,-7.48 -67.15,-24.23 -120.17,-4.75 29.28,21.16 91.25,19.59 120.54,35.11 -12.62,15.43 -19.15,2 -67.02,9.44 -24.75,3.84 -47.32,9.28 -71.46,14.78 28.14,11.21 69.82,7.53 103,8.81 -13.28,8.81 -126.05,30.07 -122.23,34.76l23.69 3.71c47.55,0.6 98.02,-1.57 141.83,-17.42 4.3,-19.52 3.51,-23.35 -10.54,-37.42 39.14,-24.93 10.56,-3.82 13.65,-50.24 4,-59.98 -49.79,-55.33 -126.76,-63.83l-41.89 -0.69c-4.74,-6.99 2.9,-14.9 -18.82,-54.34 -9.71,-17.63 -19.47,-33.61 -28.75,-47.91l-60.61 -88.37c-31.58,-22.41 -58.53,-47.04 -110.83,-39.35 19.97,9.91 32.21,11.23 50.88,22.96 -30.86,10.8 -42.89,6.17 -50.41,40.87 34.81,-3.11 47.9,-12.74 74.33,-18.45l54.52 72.65c-83.21,2.52 -144.46,30.29 -190.7,87.38 -18.37,22.69 -19.81,36.06 -35.06,59.22l-12.72 -18.27c-46.57,-85.11 -155.37,-317.03 -117.24,-390.79 21.7,-41.97 252.78,-207.34 306.54,-254.82 5.79,-7.45 3.88,-6.13 9.79,-11.55l-207.48 140.87c-81.96,58.19 -162,94.99 -144.31,205.12 17.44,108.56 96.8,276.27 155.78,371.02 26.7,42.91 61.01,84.63 72.84,103.27 17.7,-7.58 1.03,-7.57 19.03,-12.37 4.85,-1.29 16.17,-0.86 24.65,-2.69 18.58,-4 22.02,-14.87 37.46,-21.03 40.09,48.82 119.02,76.11 179.16,98.88 4.7,51.46 -9.73,170.14 -16.26,226.26 -8.11,69.57 -20.3,137.23 -32.69,205.39z"/>
  <path class="fil2" d="M4498 6273.21l13.85 2.98c-35.8,7.06 -77.55,21.66 -115.24,31.26 -139.35,35.49 -236.8,42.82 -379.45,50.52 45.95,28.75 426.01,-1.57 473.95,16.03 41.65,15.29 46.52,29.46 53.04,76.28 11.21,80.53 83,117.68 35.56,184.28l-34.6 29.35c-6.79,3.52 -13.18,4.87 -21.57,9.31l-16.19 10.4c5.14,18.7 2.61,17.2 22.02,21.96 15.38,3.78 19.48,6.29 34.37,9.78l-17.85 3.46c20.9,8.24 48.93,0.59 71.98,3.94 -17.1,14.47 -33.39,14.87 -48.08,25.55l24.26 -3.65c-19.62,63.41 34.8,83.06 -66.67,108.65 -60.79,15.33 -85.44,17.5 -154.7,9.43 -22.16,-62.09 -10.93,-18.13 -28.9,-48.43 7.19,-4.21 3.95,-0.08 11.72,-0.91 1.52,-0.16 0.76,2.79 6.17,-2.24 -12.39,-6.67 -16.67,-2.37 -31.28,-9.19 5.44,-13.33 -1.63,-4.86 13.25,-10.67l5.07 -0.82c0.49,-0.16 1.74,-0.39 2.2,-0.58 0.91,-0.38 10.83,-8.72 15.62,-11.65 -5.08,-3.21 -0.22,-0.19 -9.54,-2.58 -52.13,-13.37 -73.63,-43.31 -98.32,-92.16 -9.8,-19.39 -23.41,-60.48 -45.63,-78.04 12.21,32.17 29.56,62.13 44.4,93.25 28.35,59.43 -8.43,57.15 -30.61,84.03 16.99,19.54 29.17,6.06 33.92,34.84 8.51,7.83 0.07,20.8 -2.05,37.87 25.76,1 13.71,-2.86 25.59,-5.55 12.2,-2.76 13.67,-2.01 21.35,7.67 51.87,0.48 79.46,26.43 194.72,12.46 65.61,-7.94 106.87,-27.58 155.56,-50.55 -9.06,-17.03 -21.57,-31.04 -6.72,-56.91 8.63,-15.04 22.76,-26.16 29.37,-42.83 15.68,-39.55 -26.22,-79.33 -56.75,-80.09l45.44 16.19c-5.32,-29 -18.27,-58.58 -25.65,-89 -22.17,-91.3 -36.7,-181.71 -38.25,-276.61 -34.89,9.4 -56.07,12.14 -54.56,-30.94 -16.99,9.55 -4.45,2.82 -26.68,5.66 -10.54,1.34 1.45,-1.94 -11.84,2.04 -9.8,2.94 -6.04,1.46 -12.29,6.2z"/>
  <path class="fil3" d="M3537.74 6916.75c23.33,4.07 -46.41,52.3 -49.92,54.67 -91.15,61.29 -27.73,161.18 131.81,108.92 59.09,-19.35 121.33,-46.15 179.58,-64.19 61.47,-19.04 114.16,-32.24 134.84,-89.17 0.39,-1.06 0.77,-2.34 1.19,-3.34 0.41,-0.98 1.07,-2.3 1.48,-3.17 0.4,-0.86 1.39,-2.33 1.74,-3 0.35,-0.68 1.04,-2.13 1.89,-2.9 -6.55,-20.43 -7.83,-8.71 -10.78,-32.61 -69.41,48.22 -208.87,50.07 -295.09,35.74 -17.55,-2.92 -72.44,-17.8 -76.26,-29.98 -0.52,-1.67 -2.06,-1.6 -3.22,-2.15 -0.35,0.89 -1.42,1.08 -1.65,2.37l-7.33 10.27c-7.06,11.75 -4.26,6.38 -8.27,18.56z"/>
  <path class="fil9" d="M3977.74 5257.28c28.32,19.28 339.56,-4.5 392.6,-13.38 122.19,-20.46 220.57,-57.27 309.21,-113.77 134.71,-85.87 234.8,-226.13 236.92,-397.78 0.61,-49.14 -13.04,-145 -33.74,-175.54 -10.78,22.41 -7.39,105.13 -24.39,178.88 -61.69,267.71 -253.15,432.49 -518.53,487.82 -52.9,11.03 -118.56,26.43 -170.66,31.99 -45.42,4.85 -149.8,-8.71 -191.42,1.78z"/>
  <path class="fil1" d="M4101.44 5415.78c40.2,-13.17 133.21,-48.02 109.79,-108.28l-16.56 -22.28c-70.72,0.52 -139.06,-1.39 -209.42,-5.85 -109.16,-6.92 -129.32,-20.23 -191.76,-26.68 -13.67,39.38 -21.97,59.51 9.02,89.34 8.16,7.86 63.84,46.8 75.73,51.41 8.56,3.31 87.51,4.35 111.83,9 34.64,6.61 76.67,20.78 111.37,13.35z"/>
  <path class="fil6" d="M2742.93 4376.21c6.72,5.76 0.61,-2.22 9.5,10.83l102.72 190.03c22.08,33.34 42.25,63.14 64.15,93.42l72.2 84.08c-46.81,-46.29 -154.48,-238.33 -180.9,-290.65 -9.37,-18.55 -16.82,-35.92 -24.17,-52.4 -6.84,-15.33 -18.02,-28.6 -14.88,-43.61 2.83,-13.52 2.93,-9.36 10.44,-15.27 14.49,-35.23 116.72,-162.83 146.23,-198.92 16.26,-19.89 144.04,-167.12 169.68,-183.22 8.13,-12.24 54.46,-55.7 67.33,-66.43 25.65,-21.38 47.52,-44.61 74.12,-65.61 52.15,-41.18 98.54,-80.02 154.7,-120.17 45.63,-32.62 296.39,-199.68 344.62,-204.72 20.74,-26.85 264.01,-118.73 322.46,-137.5l103.39 -35.93c-92.08,2.39 -366.65,117.52 -456.85,160.14 -140.53,66.41 -269.51,149.07 -381.26,231.47 -31.34,23.11 -58.07,44.56 -85.61,67.6 -154.63,129.36 -249.17,227.95 -375.28,390.89 -25.47,32.91 -109.78,147.38 -122.59,185.95z"/>
  <path class="fil6" d="M3420.48 4752.53c98.08,119.22 38.72,37.66 90.59,153.54 17.56,-2.94 34.25,-11.55 51.98,-18.33 17.09,-6.54 39.5,-8.72 55.29,-15.85 12.2,-22.72 -1.35,-32.77 -5.92,-62.54 -18.52,-40.84 -13.79,-142.81 -1.66,-193.99 14.52,-61.29 35.69,-104.2 64.72,-146.88 43.48,-63.92 147.79,-149.42 259.05,-166.39l18.28 -3.05c-7.63,8.75 -18.9,19.39 -26.94,27.43l380 -115.41c-7.82,8.3 -50.61,66.1 -57.85,79.98l214.13 -75.9c14.56,-4.5 22.11,-1.83 36.14,-5.21l-7.04 -17.91 -172.03 47.25c13.38,-24.86 43.34,-44.14 58,-76.22 -70.26,4.66 -271.3,93.71 -375.04,99.46 -173.72,9.62 -327.89,106 -393.9,269.42 -19.51,48.3 -31.46,101.19 -32.61,159.69 -1.99,101.48 19.8,115.05 25.65,161.19l-80.98 33.7c-20.88,-62.8 -33.5,-73.81 -70.48,-115.59 -27.56,-31.13 -24.2,-26.85 -29.38,-18.37z"/>
  <path class="fil6" d="M3940.35 6914.56c-0.85,0.78 -1.54,2.22 -1.89,2.9 -0.35,0.68 -1.35,2.15 -1.74,3 -0.41,0.87 -1.07,2.19 -1.48,3.17 -0.41,1 -0.8,2.28 -1.19,3.34 -20.68,56.93 -73.37,70.13 -134.84,89.17 -58.25,18.04 -120.48,44.84 -179.58,64.19 -159.55,52.26 -222.96,-47.63 -131.81,-108.92 3.52,-2.36 73.25,-50.59 49.92,-54.67 -9.35,3.98 -20.66,17.69 -36.78,27.2 -16.31,9.63 -31.8,16.88 -44.44,27.66 -55.13,46.95 -30.26,138.68 -0.7,154.84 47.06,25.71 120.06,43.43 176.14,38.47 76.01,-6.72 144.5,-52.38 204.61,-83.77 61.93,-32.35 144.37,-68.65 103.78,-166.6z"/>
  <path class="fil6" d="M4282.73 6908.06c-1.91,19.02 -7.04,22.36 -22.29,28.65 7.81,19.22 111.79,76.33 137.16,90.7 50.61,28.66 105.37,55.46 176.98,51.93 197.78,-9.73 215.72,-194.83 114.41,-220.38 -13.11,3.11 -5.8,-1.36 -12.78,5.91 18.77,7.54 37.7,22.41 45.72,45.06 11.17,31.54 -6.66,40.83 -24.34,54.07 -86.13,64.54 -236.98,-13.7 -345.61,-45.19 -23.4,-6.78 -48.17,-20.01 -69.26,-10.76z"/>
  <path class="fil2" d="M3560.3 6727.68l-28.69 37.59c-6.22,22.69 -44.5,83.19 53.89,123.62 37.62,15.46 158.65,27.94 188.69,9.93l-16.28 -4.14c25.94,-1.61 64,-22.94 76.87,-35.3 -10.16,-3.81 -6.89,-3.24 -13.26,-10.82 -64.32,18.12 -125.56,11.21 -174.59,-34.84 -6.35,-5.96 -2.22,-4.36 -5.72,-4.99l59.11 9.53c-6.89,-12.15 -11.08,-13.36 -4.57,-29.7 6.49,-16.3 5.97,-7.06 16.62,-14.8 -38.93,-42.26 -69.07,-101.31 -80.12,-172.26 -10.42,-66.87 4.61,-91.05 9.61,-137.66 2.58,-24.01 -8.26,-58.74 -15.49,-67.72 -0.85,69.81 0,117.05 -13.3,186.73 -15.85,83.07 -42.73,130.35 -48.03,156.95 -6.39,-6.7 -6.16,10.41 -4.75,-12.1z"/>
  <path class="fil6" d="M4019.3 2233.97c4.44,17.75 6.08,19.48 24.8,23.14 28.15,2.72 63.47,-5.66 93.22,-8.13 268.87,-22.28 520.37,42.45 725.89,211.48 84.55,69.53 139.93,129.61 202.92,220.69 17.39,25.15 69.58,105.96 75.76,134.05 29.99,29.14 77.33,205.14 84.33,238.18 52.32,246.84 18.29,464.02 -67.48,693.77 -14.67,39.3 -37.57,77.68 -49.35,111.9 1.85,-22.17 20.9,-45.04 30.69,-65.87 32.62,-69.44 56.97,-130.63 77.53,-206.91 89.85,-333.44 41.15,-645.38 -137.36,-919.18 -13.43,-20.61 -27.5,-39.77 -41.53,-57.54 -95.29,-120.72 -219.2,-229.96 -365.6,-296.91 -157.97,-72.24 -298.79,-97.05 -477.07,-93.37 -60.58,1.25 -122.29,13.93 -176.74,14.71z"/>
  <path class="fil7" d="M4503.4 3813.19c73.54,1.85 139.89,-2.87 215.43,3.62 34.97,3.01 170.61,20.34 192.48,30.2l-4.21 -41.43 -1.22 20.75c-10.03,-24.98 -17.81,-62.29 -26.56,-88.58 -18.21,-54.68 -73.72,-183.15 -109.45,-224.16 -4.81,-5.53 -2.95,-3.59 -8.22,-7.56 5.93,106.4 9.49,163.7 -44.61,237.46 -9.67,13.19 -53.81,60.28 -75.35,64.65 -38.83,7.87 -105.57,-12.12 -138.28,5.06z"/>
  <path class="fil3" d="M4223.21 6812.25l14.86 15.58 -12.37 12.05c-0.92,0.67 -2.2,1.42 -3.08,2.02 -0.9,0.61 -2.48,1.5 -3.23,1.99 -0.77,0.5 -2.31,1.18 -3.33,1.97l7.87 12.8c20.55,5.12 29.67,-3.63 46.67,11.78 9.76,8.85 13.23,21.54 12.13,37.63 21.09,-9.26 45.86,3.97 69.26,10.76 108.64,31.49 259.48,109.73 345.61,45.19 17.68,-13.25 35.51,-22.54 24.34,-54.07 -8.02,-22.65 -26.95,-37.52 -45.72,-45.06 6.97,-7.27 -0.34,-2.8 12.78,-5.91 -11.73,-8.04 -6.25,-4.92 -21.19,-8.54 -3.4,-0.82 -8.46,-1.3 -11.61,-2.32 -12.45,-4.05 -5.96,0.55 -12.74,-6.72 -69.81,54.68 -183.48,61.74 -272.46,53 -75.48,-7.41 -44.5,-18.85 -76.15,-33.9 8.76,-3.76 -9.61,-6.33 10.79,-2.87 -7.69,-9.69 -9.15,-10.43 -21.35,-7.67 -11.88,2.69 0.17,6.55 -25.59,5.55 2.12,-17.08 10.56,-30.04 2.05,-37.87 0.83,0.5 -1.09,1.5 2.86,-3.27 -15.72,-11.15 0.85,-13.07 -31.5,-22.54 -7.56,11.7 -7.13,4.46 -8.91,20.45z"/>
  <path class="fil9" d="M3293.7 5017.07c1.44,12.51 -10.02,4.39 7.76,11.56 9.27,-10.45 2.32,-22.11 2.32,-22.13 77.56,11.52 112.2,-60.03 92.72,-132.82 -27.77,-103.74 -95.37,-106.37 -113.85,-120.48 -92.01,24.06 -86.01,124.19 -28.7,204.52 20.93,29.33 38.73,39.13 39.75,59.36z"/>
  <path class="fil0" d="M3550.66 5354.11c61.04,39.3 318.82,115.87 409,123.19l-4.91 -6.33c-27.4,-29.13 -150.79,-98.45 -173.6,-139.27 -16.87,-30.19 2.25,-58.35 10.39,-83.3 -35.39,-1.75 -100.67,29.87 -130.84,43.5l-97.43 51.32c-5.33,3.63 0.11,-0.52 -5.33,3.88 -5.16,4.17 -4.3,3.57 -7.28,7z"/>
  <path class="fil6" d="M4312.46 3311.01c-1.21,21.68 -6.17,32.96 -3.06,57.17 10.75,-25.59 13.3,-61.09 24.9,-88.7 11.98,-28.5 27.59,-51.36 57.55,-59.72 54.48,-15.2 152.85,29.26 166.16,57.88 65.4,29.36 142.76,182.97 113.4,308.01 -12.88,54.85 -48.2,106.85 -84.47,131.37 -59.05,39.91 -103.24,31.84 -165.45,4.5 30.07,28.06 82.43,36.57 131.55,24.57 40.44,-9.88 76.7,-42.11 97.43,-69.03 72.39,-94.05 54.78,-170.52 41.03,-260.15 13.06,9.27 66.52,74.07 70.16,89.12 5.28,3.97 3.41,2.03 8.22,7.56 35.73,41.01 91.24,169.48 109.45,224.16 8.75,26.29 16.53,63.6 26.56,88.58l1.22 -20.75c2.3,-49.09 -17.84,-114.3 -33.25,-157.15 -8.45,-23.52 -18.81,-46.43 -28.6,-65.8 -12.52,-24.76 -28.61,-42.68 -36.93,-67.26 -8.25,-3.63 -17.24,-21.16 -23.93,-29.48 -19.88,-24.74 -62.36,-71.39 -86.19,-89.64 -33.47,-25.63 -26.44,-33.25 -49.92,-67.18 -16.87,-24.39 -36.58,-45.41 -55.36,-61.99 -89.94,-79.38 -251.91,-123.42 -280.47,43.94z"/>
  <path class="fil10" d="M4330.48 3606.81c25.55,57.86 46.08,83.73 91,114.7 62.21,27.33 106.4,35.41 165.45,-4.5 36.26,-24.51 71.59,-76.52 84.47,-131.37 29.36,-125.04 -48,-278.65 -113.4,-308.01 54.98,106.58 116.04,200.21 51.31,322.02 -60.97,114.73 -234.98,84.86 -264.56,-4.9l-14.28 12.05z"/>
  <path class="fil2" d="M4440.38 6082.81l14.05 -20c16.19,-21.15 30.84,-30.42 57.38,-40.73 33.15,-12.88 76.21,-20 112.44,-23.03 0.28,-40.89 -20.87,-123.3 -25.08,-175.2 -1.83,-22.62 -8.57,-150.23 -16.72,-171.21 -3.7,-9.52 -0.66,-4.03 -5.31,-9.55 -5.24,18.09 -13.45,25.23 -21.1,43.34 -32.28,76.45 -4.16,143.85 -6.49,186.11 -2.52,45.82 -43.91,50.6 -79.43,62.99 -13.11,4.57 -12.55,6.38 -21.41,13.88 -10.98,9.3 -27.45,21.44 -21.02,47.39 1.22,4.94 2.8,6.87 6.11,12.23l8.18 12.09c-1.04,0.82 -2.7,0.56 -3.25,2.26 -2.75,8.52 -49.75,18.71 -10.86,48.53 12.11,9.28 0.63,-4.71 12.53,10.91z"/>
  <path class="fil1" d="M3461.48 6088c-0.16,18.03 6.8,82.73 36.14,104.27 12.28,9.02 33.77,16.54 49.77,22.18 32.47,11.42 22.69,6.76 53.83,5.16 -3.81,-4.68 108.95,-25.95 122.23,-34.76 -33.18,-1.28 -74.87,2.4 -103,-8.81 24.15,-5.5 46.72,-10.94 71.46,-14.78 47.87,-7.44 54.4,5.98 67.02,-9.44 -29.28,-15.52 -91.26,-13.95 -120.54,-35.11 53.03,-19.48 72.54,-2.72 120.17,4.75 -6.39,-52.33 -119.89,-19.14 -179.37,-64.73l10.81 -11.61c-10.04,-2.86 -19.07,-6.44 -29.79,-6.12 -9.46,0.28 -5.1,-0.22 -12.77,2.57 -17.49,6.39 -3.97,0.69 -11.14,6.61l12.45 3.54c-26.19,3.31 -78.78,18.76 -87.29,36.28z"/>
  <path class="fil6" d="M4063.24 6566.54c-13.83,42.69 -62.37,127.83 -79.67,174.9 -6.88,18.72 -11.83,46.69 -21.57,62.26 -2.06,52.72 -28.96,55.89 -70.54,70.56 -28.78,10.15 -87.17,30.63 -117.28,24.57 -30.04,18.01 -151.07,5.52 -188.69,-9.93 -98.39,-40.43 -60.11,-100.93 -53.89,-123.62l0.41 0c-12.17,20.1 -26.01,34.35 -16.46,67 7.2,24.61 23.68,46.45 39.44,53.27 1.17,0.56 2.7,0.48 3.22,2.15 3.82,12.17 58.71,27.06 76.26,29.98 86.22,14.33 225.69,12.49 295.09,-35.74 16.19,0.03 15.63,-7.83 28.42,-1.46l8.26 6.93 42.59 -138.53c6.74,-17.16 11.97,-32.43 23.12,-41.3 2.11,-23.82 59.93,-131.64 74.04,-163.02 49,2.1 58.47,33.19 77.3,70.63 16,31.83 32.28,69.26 50.5,98.4l5.61 22.46c-12.68,11 -31.04,19.26 -38.07,34.07 -10.41,21.96 2.88,39.57 21.87,42.12 1.78,-15.99 1.35,-8.75 8.91,-20.45 32.35,9.46 15.78,11.39 31.5,22.54 -3.95,4.77 -2.03,3.77 -2.86,3.27 -4.75,-28.78 -16.93,-15.3 -33.92,-34.84 22.19,-26.89 58.96,-24.61 30.61,-84.03 -14.85,-31.12 -32.19,-61.08 -44.4,-93.25 -23.63,-34.32 -24.67,-60.8 -65.29,-80.84 -57.89,-28.57 -67.4,4.03 -84.51,41.9z"/>
  <path class="fil6" d="M4014.26 4490.17c-3.39,-48.64 36.72,-102.07 70.59,-117.72 46.54,-21.48 113.72,1.31 136.57,28.87 -57.59,6.69 -78.22,-2.38 -130.54,22.99 -26.36,12.79 -70.31,43.87 -76.63,65.86zm238.15 37.98c-5.14,-18.08 -3.52,-12.34 -17.59,-17.2l-8.59 7.37c-17.44,20.08 -34.94,3.59 -45.87,-9.35l-23.4 -21.74c-0.93,-0.48 -2.22,-0.97 -3.13,-1.43l-12.35 -6.5 0.3 7.61c5.39,22.51 12.99,21.81 26.04,39.16 8.05,10.7 26.94,23.83 11.05,34.67 -19.7,-2.78 -2.88,6.52 -18.17,-9.83l-31.96 -39.85c-0.69,1.04 -1.3,2.57 -1.65,3.36 -8.74,20.22 -2.04,13.7 -9,17.7 4.42,11.29 4.13,9.92 16.14,18.19 4.39,3.02 6.89,4.05 10.9,6.89 9.59,6.8 3.16,1.11 10.09,8.23 -11.73,9.04 -127.79,38.04 -136.59,38.57 -3.95,-29.48 -9.85,-65.37 -6.94,-97.16 21.47,-21.86 78.59,-57.21 116.79,-63.42l7.43 9.77c13,-7.4 1.58,6.57 10.59,-7.02 4.96,3.07 9.24,8.24 14.83,9.52 13.63,3.12 29.57,-8.89 18.65,17.5 -0.37,0.88 -1.43,4.52 -1.72,3.79 -0.3,-0.75 -1.37,2.57 -1.78,3.96 13,9.5 14.49,16.96 29.04,19.68l8.95 -11.45c0.39,-21.78 -22.81,-24.61 -12.13,-56.73 8.94,-26.92 27.22,-23 41.17,-33.31 -47.64,-67.49 -153.19,-83.27 -216.68,-16.49 -60.24,63.36 -47.72,162.34 -29.03,254.23 6.72,0.19 66.19,-17.87 76.51,-21.86 16.59,-6.39 17.96,-8.23 36.85,-13.77l135.59 -54.2 5.69 -18.91z"/>
  <path class="fil4" d="M3504.59 5385.66c51.08,41.79 177.71,99.62 254.74,126.53 88.82,31.03 227.78,58.95 328.43,52.22 -9.37,-12.16 -38.45,-28.48 -51.38,-36.98 -23.6,-15.5 -30.57,-29.89 -65.41,-30.93 -59.32,-1.78 -109.91,-8.23 -166.29,-22.18 -78.57,-19.43 -222.93,-74.1 -255.18,-118.48 -18.51,5.21 -36.34,14.03 -44.91,29.81z"/>
  <path class="fil9" d="M4194.67 5285.21l16.56 22.28c23.42,60.26 -69.59,95.11 -109.79,108.28 42.73,24.31 160.56,-12.42 211.09,-5l2.23 9.2c27.1,-18.47 52.9,-65.3 79.69,-80.8l21.45 -17.87c-120.73,-67.1 -33.25,-39.68 -221.23,-36.1z"/>
  <path class="fil0" d="M4314.76 5419.98l-2.23 -9.2c-77.41,25.3 -113.67,44.93 -211.25,38.24 -80.67,-5.53 -134.16,-38.8 -202.96,-45.59 21.11,20.33 110.84,82.57 140.02,87.65 6.37,13.33 -5.33,5.63 18,20.65l94.66 54.78c29.43,-17.24 131.18,-116.17 163.78,-146.53z"/>
  <path class="fil6" d="M3064.48 4813.7c-2.26,52.61 10.26,94.24 33.74,133.28 18.54,30.81 53.78,70.54 79.35,87.22 0.99,13.62 79.79,69.22 89.94,76.76 66.57,49.49 158.19,100.81 246.87,66.41 47.37,-18.37 61.71,-36.94 81.7,-75.94l3.43 -6.3 -0.72 -3.52c-9.7,17.3 -13.18,26.15 -27.63,38.04 -19.08,24.65 -64.66,41.78 -109.64,41.11 -39.79,-0.59 -91.87,-14.63 -111.86,-39.74 -17.17,-2.09 -21.58,-8.62 -39.88,-21.75 -68,-48.8 -181.18,-140.67 -207.91,-220.22 -25.58,-76.15 -6.16,-148.65 43.56,-180.1 85.19,-53.88 159.44,-6.76 193.68,-5.56 9.51,-9.1 7.26,-1.67 -6.17,-9.25 -37.75,-21.3 -93.24,-32.58 -138.57,-25.56 -18.43,8.51 -33.48,6.89 -53.57,17.59 -16.82,8.95 -26.22,18.17 -37.86,30.07 -21.33,21.8 -37.22,56.99 -38.48,97.46z"/>
  <path class="fil1" d="M4425.13 3266.26c-67.9,30.37 -53.03,322.3 14.56,290.6 22.72,-10.66 46.33,-230.63 42.98,-252.14 -4.19,-26.9 -27.97,-51.69 -57.53,-38.46z"/>
  <path class="fil2" d="M3472.12 5412.96c-5.91,5.42 -4,4.1 -9.79,11.55 27.46,0.76 -5.2,6.56 50.87,44.35l108.43 71.38c20.08,11.19 39.8,19.74 61.22,29.09 37.97,16.58 94.47,33.5 140.38,37.97 94.74,9.23 121.39,-21.94 166.7,-10.58l0.15 -8.32c-100.69,-6.84 -193.67,-32.39 -278.81,-65.47 -39.48,-15.34 -81.3,-35.39 -116.48,-54.31 -41.35,-22.24 -72.47,-45.2 -110.33,-67.41 -14.89,1.9 -9.81,-3.19 -12.35,11.75z"/>
  <path class="fil9" d="M3612.42 4809.34c13.86,-24.77 -2.13,-236.49 199.14,-421.06 71.05,-65.15 104.16,-61.35 122.97,-86.2 -111.26,16.97 -215.57,102.47 -259.05,166.39 -29.04,42.69 -50.2,85.59 -64.72,146.88 -12.13,51.17 -16.85,153.15 1.66,193.99z"/>
  <path class="fil2" d="M3382.2 5823.76c52.3,-7.69 79.25,16.93 110.83,39.35 7.94,0.83 1.39,0.93 4,-8.39 -1.56,-0.87 -24.75,4.18 12.61,-29.02 11.71,-10.41 16.07,-18.39 29.64,-28.69 21.02,-15.96 44.34,-31.17 74.8,-39.15 3.86,-7.31 8.98,-8.3 12.97,-21.55 1.95,-6.49 1.56,-18.88 1.44,-26.05 -0.21,-13.35 -2.7,-35.32 0.44,-45.19l4.02 -24.21c-0.59,-0.74 5.25,-16.94 -17.61,-2.98 -2.5,1.53 -9.33,12.27 -11.37,15.91 -50.91,90.54 -172.12,35.72 -221.75,169.99z"/>
  <path class="fil6" d="M4705.05 4425.71c-5.63,-22.15 22.78,-25.4 27.16,-8.24 5,19.63 -23.24,23.67 -27.16,8.24zm-130.49 -48.53c19.37,-9.44 62.69,-16.3 87.94,-12.46 4.07,28.79 -5.12,34.54 -26.95,40.56 7.61,31.06 13.69,30.99 27.37,47.48 -15.43,8.98 -67.66,28.34 -84.64,26.63 -7.68,-9.58 -12.5,-13.75 -12.16,-29.87 -11.48,18.33 8.28,40.79 30.36,39.46 21.53,-1.29 61.79,-24.35 144.87,-17.24 40.62,3.48 23.15,15.22 66.94,2.61 -10.44,-95.53 -142.11,-246.14 -227.75,-152.22 28.83,-13.07 81.58,-49.93 136.56,30.29 -26.92,-13.67 -48.67,-23.02 -88.2,-17.2 -18.92,2.79 -47.79,15.37 -56.33,26.43 -18.98,24.61 -6.94,9.49 1.99,15.54z"/>
  <path class="fil9" d="M3349.67 5131.03c19.99,25.11 72.07,39.15 111.86,39.74 44.98,0.67 90.56,-16.46 109.64,-41.11 4.72,-23.61 22.76,-31.43 22.04,-82.11 -0.42,-29.07 -11.64,-57.23 -27.55,-71.12 -22.34,44.85 -45.72,78.02 -86.2,102.49 -44.98,27.19 -80.52,17.91 -129.79,52.12z"/>
  <path class="fil1" d="M4585.88 6084.21c7.59,-6.54 11.37,-11.84 20.25,-16.64l17.91 16.72c0.54,0.79 1.35,1.9 1.83,2.71 20.02,33.44 -43.31,61.46 -39.99,-2.79zm-24.79 112.96c12.17,-14.16 28.77,-19.06 47.43,-24.43 45.84,-13.22 37.13,-3.32 47.59,10.67 21.42,-45.5 22,-17.79 35.4,-41.32 -8.38,-17.28 -27.76,-40.02 -39.72,-62.92 -13.27,-25.42 -16.68,-43.96 -27.63,-72.13 -14.77,1.43 -132.45,40.56 -151.2,82.19l81.05 -11.5c-8.48,16.56 -16.73,14.66 -36.26,35.26 -10.47,11.04 -19.33,21.47 -23.68,38.9 34.23,-4.41 59.89,-15.62 98.87,-17.68 -15.8,25.67 -50.02,30.35 -65.2,73.47l33.34 -10.5z"/>
  <path class="fil11" d="M4267.8 5823.39c21.69,40.3 7.19,62.14 -5.47,92.26 -5.13,-98.91 -69.46,-85.08 -63.45,-130.83 31.93,-17.42 58.31,18.87 68.92,38.57zm-117.32 -77.05l-3.7 17.15c8.32,18.71 0.69,58.44 10.95,80.06 21.76,45.83 87.14,35.8 95.82,119.72 3.07,29.69 1.26,23.84 12.99,34.58 20.72,-44.47 46.1,-81.93 30.36,-149.57 -10.21,-43.88 -38.56,-91.26 -75.6,-107.98 -7.33,-5.81 -11.11,-5.21 -19.91,-9.17 -20.52,4.85 -24.69,11.23 -50.91,15.21z"/>
  <path class="fil6" d="M3714.24 6300.99c-3.7,-0.46 -12.27,-1.67 -14.56,-1.54 -11.27,0.61 -0.24,-2.37 -7.78,2.59 17.32,0.98 49.84,15.68 71.02,21.92 23.77,7 49.04,12.72 75.77,17.97 51.8,10.18 124.76,18.22 178.47,16.04 142.65,-7.7 240.11,-15.03 379.45,-50.52 37.7,-9.6 79.44,-24.2 115.24,-31.26l-13.85 -2.98c-125.61,19.84 -250.86,41.57 -380.11,51.74 -151.7,11.94 -262.23,0.65 -403.65,-23.96z"/>
  <path class="fil2" d="M3652.34 6038.74c-0.66,0.97 -1.59,2.28 -1.98,2.91l-7.27 12.76c76.97,8.5 130.77,3.85 126.76,63.83 -3.09,46.42 25.48,25.31 -13.65,50.24 14.05,14.07 14.83,17.9 10.54,37.42 -43.82,15.85 -94.29,18.02 -141.83,17.42l0 6.2c21.78,7.35 25.14,10.08 35.23,29.93 8.78,17.28 11.11,30.39 11.46,49.99 0.94,-0.84 2.09,-3.69 2.65,-2.71 1.2,2.13 4.3,-3.32 6.09,-3.87 6.3,-1.94 -2.37,-2.28 11.56,-0.81 7.54,-4.96 -3.49,-1.98 7.78,-2.59 2.29,-0.13 10.85,1.08 14.56,1.54l3.46 -13.98c-18.01,-21.13 -14.57,-6.37 -17.75,-22.87 -3.72,-19.31 7.1,-19.47 31.81,-19.39 65.29,0.22 42.76,-25.1 79.84,-58.57 13.62,-12.3 17.87,-27.31 5.13,-42.67 -6.13,-7.4 -8.65,-8.83 -18.44,-12.79 3.25,-8.91 15.3,-20.57 7.57,-39.36 -13.95,-33.89 -68.5,-25.15 -92.25,-52.65 -33,-38.2 -31.3,-91.59 -49.8,-135.2 -0.44,-1.05 -1.55,-1.76 -1.89,-4.01 -0.35,-2.32 -1.22,-2.8 -2,-4.11 -0.2,45.11 3.22,107.09 -6.32,149.44l-1.26 -6.11z"/>
  <path class="fil4" d="M4209.3 5553.19l422.43 -163.02c-8.7,-19.77 -73.9,-33.63 -97.7,-35.86 -29.7,28.3 -35.75,34.99 -71.98,58.34 -110.05,70.91 -167.95,60.52 -188.75,73.15 -10.43,6.34 -58.73,57.28 -63.99,67.39z"/>
  <path class="fil2" d="M4578.99 5633.51c3.2,-11.3 -1.23,-12.49 9.04,3.21 25.35,38.75 33.57,126.81 38.89,167.6l20.02 4.79 -6.54 -18.22c45.4,11.04 84.1,47.28 98.65,88.49l28.23 8.01c16.81,1.43 15,2.32 29.27,-5.36 -0.03,-7.22 5.64,-1.07 -15.52,-9.65 11.16,-97.61 -61.03,-49.62 -150.44,-200.58 -19.47,-32.87 -16.88,-59.13 -56.57,-56.59 -9.48,33.98 -2.24,8.13 4.96,18.3z"/>
  <path class="fil11" d="M4055.41 5763.09c-8.55,25.71 -28.35,34.46 -40.03,61.58 20.85,-10.82 26.97,-16.43 43.43,-27.76 -26.45,39.37 -49.67,83.82 -76.24,121.01l55.75 82.9c11.24,-26.19 22.64,-74.81 32.25,-104.97l33.13 -93.22c9.85,-15.56 0.04,-3.41 9.94,-11.05l1.63 -47.46c-9.52,-4.95 -20.18,-9.04 -28.5,-12.63 -13.93,20.75 -22.52,18.68 -31.36,31.61z"/>
  <path class="fil6" d="M4146.78 5763.5c-17.44,71.34 -9.46,58.7 5.85,114.74 21.04,13.48 50.47,29.72 63.45,55.2 11.48,22.54 19.21,74.63 6.71,99.22l0.54 36.76c130.98,-73.35 135.22,-250.04 21.54,-322.81l-23.57 -6.3c37.04,16.72 65.39,64.1 75.6,107.98 15.74,67.65 -9.64,105.11 -30.36,149.57 -11.72,-10.74 -9.92,-4.89 -12.99,-34.58 -8.69,-83.93 -74.06,-73.89 -95.82,-119.72 -10.26,-21.61 -2.63,-61.34 -10.95,-80.06z"/>
  <path class="fil0" d="M4118.07 4532.12c-6.16,-4.62 -4.33,-1.52 -9.56,-9.88 -5.61,-8.95 0.78,3.08 -3.91,-10.9 7.43,-3.42 17.85,-5.29 24.04,-9.27l10.92 -12.08c0.37,-1.73 1.42,-2.09 2.21,-3.08l-0.3 -7.61 -5.59 -26.12 -7.43 -9.77c-38.2,6.21 -95.32,41.56 -116.79,63.42 -2.91,31.78 2.99,67.68 6.94,97.16 8.81,-0.53 124.87,-29.53 136.59,-38.57 -6.93,-7.12 -0.5,-1.43 -10.09,-8.23 -4,-2.84 -6.51,-3.87 -10.9,-6.89 -12,-8.27 -11.72,-6.9 -16.14,-18.19z"/>
  <path class="fil6" d="M4113.64 5791.57c-9.91,7.63 -0.09,-4.52 -9.94,11.05l-33.13 93.22c-9.61,30.16 -21.02,78.78 -32.25,104.97l-55.75 -82.9c-12.79,-18.78 -12.2,-35.07 1.06,-55.24 10.83,-16.48 17.67,-27.39 31.74,-38 11.68,-27.11 31.48,-35.87 40.03,-61.58 -19.79,13.84 -48.06,43.49 -66.01,60.4 -19.46,18.33 -51.68,42.75 -40.19,88.18 7.24,28.6 80.93,142.23 98.12,160.04 21.33,-33.94 57.69,-225.04 66.31,-280.14z"/>
  <path class="fil9" d="M3598.81 5091.61l0.72 3.52c9.8,11.17 15.48,22.75 25.64,36.63 10.08,13.78 12.85,22.81 26.73,30.16 15.26,9.72 29.07,23.55 47.58,35.39 15.85,10.14 37.74,20.89 57.16,28.42 43.26,16.76 90.54,24.28 142.29,29.96l26.94 -9.65c-11.94,-6.24 -78.44,-20.68 -104.52,-30.62 -162.46,-61.92 -182.66,-155.83 -225.42,-167.12 1.07,25.66 9.14,18.61 2.88,43.3z"/>
  <path class="fil4" d="M4667.03 5928.89l6.7 19.71c-2.16,-22.77 -1.53,-4.43 4.5,-9.67 31.31,36.8 48.3,64.91 81.73,99.7 13.2,13.74 84.7,71.6 107.54,77.83l42.77 -49.36c-9.9,-7.41 -25.1,-8.48 -36.49,-11.19 -29.49,-7.03 -67.7,-27.83 -90.39,-45.41 -14.3,-11.09 -87.93,-80.98 -72.46,-101.92l-4.32 -8.88c-17,6.71 -31.57,12.22 -39.57,29.19z"/>
  <path class="fil11" d="M4156.82 5674.09c-24.07,34.61 -92.88,16.26 -53.69,-25.13 9.18,-9.69 25.78,-26.87 41.57,-22.81 17.94,4.61 24.37,30.31 12.11,47.94zm-113.79 -34.32l27.31 1.23c-9.6,23.84 -23.5,44.49 0.59,69.26 24.63,25.56 54.67,28.2 89.61,13.99 27.91,-11.35 51.07,-37.34 45.29,-77.04 -1.84,-12.64 -11.25,-31.22 -21.2,-38.74 -29.53,-22.28 -71.35,30.31 -141.6,31.3z"/>
  <path class="fil0" d="M4394.44 5339.19c-30.44,45.99 -86.17,104.22 -98.07,123.83 38.19,-9.35 190.46,-89.44 226.89,-111.85l-107.37 -29.85 -21.45 17.87z"/>
  <path class="fil2" d="M4894.78 6041.5l22.29 13.28c17.13,-10.18 30.26,-35.84 49.7,-56.13 44.37,-46.28 116.09,-122.81 87.15,-194.81l-12.27 -17.94c0.9,17.79 -2.5,15.96 -14.38,34.16 -13.9,21.29 -81.83,191.95 -132.48,221.44z"/>
  <path class="fil9" d="M3394.11 6156.74c43.23,33.37 178.87,105.96 249.29,118.3 -6.01,-30.32 -16.26,-30.96 -31.56,-39.71l-9.91 -6.37c-0.63,-1.79 -2.32,-1.54 -3.26,-3.27l26.24 3.83 0 -6.2 -23.69 -3.71c-31.14,1.6 -21.36,6.26 -53.83,-5.16 -16,-5.63 -37.49,-13.16 -49.77,-22.18 -29.34,-21.54 -36.3,-86.24 -36.14,-104.27 -22,8.91 -64.23,44.94 -67.37,68.74z"/>
  <path class="fil5" d="M3312.79 6133.21c44.3,-77.53 120.04,-135.07 240.72,-135.03l-33.43 -40.66c-86.12,7.31 -185.34,75.92 -229.23,140.2 2.84,8.4 4.76,13.17 9.8,21.31l12.13 14.17z"/>
  <path class="fil0" d="M4675 6081.57c7.13,-5.78 8.49,-4.76 12.24,-13.33 10.85,15.49 27.29,29.7 46.98,37.31 11.65,4.5 21.4,7.13 33.98,8.56 44.3,5.02 39.58,-6.99 41,-8.99 -53.07,-22.62 -124.07,-91.39 -135.48,-156.52l-6.7 -19.71c-23.22,12.14 -31.07,45.95 -24.31,77.85 6.26,29.52 23.11,50.37 32.28,74.82z"/>
  <path class="fil6" d="M4314.19 4805.2c36.78,91.37 158.32,-16.24 214.87,-9.84 42.7,4.83 52.04,47.61 108.83,13.69 39.65,-23.68 63.58,-31.74 115.99,-15.66 -26.86,-25.93 -73.96,-30.69 -116.28,-11.6 -65.87,29.72 -50.8,-10.7 -107.9,-16.19 -83.25,-8 -145.58,105.25 -215.51,39.61z"/>
  <path class="fil0" d="M3536.31 6048.18c7.17,-5.91 -6.35,-0.22 11.14,-6.61 7.67,-2.8 3.31,-2.3 12.77,-2.57 10.71,-0.32 19.75,3.26 29.79,6.12 -5.97,-17.8 -15.99,-24.85 -24.61,-37.44 -87.96,-2.87 -215.11,103.55 -246.09,140.75 7.99,15.87 17.27,28.55 25.54,43.48 9.63,-10.36 23.09,-38.5 33.06,-51.53 37.53,-49.01 91.44,-83.65 158.41,-92.19z"/>
  <path class="fil2" d="M4675 6081.57c21.04,36.63 85.31,105.83 131.55,116.19 12.46,-17.76 48.37,-54.05 54.07,-74.41l-51.41 -18.22c-1.42,2 3.3,14.01 -41,8.99 -12.58,-1.43 -22.33,-4.06 -33.98,-8.56 -19.7,-7.61 -36.13,-21.82 -46.98,-37.31 -3.75,8.57 -5.11,7.55 -12.24,13.33z"/>
  <path class="fil0" d="M4574.56 4377.18c-5.49,4.99 -1.73,5.69 -14.57,10.09l6.13 62.24c-0.34,16.12 4.48,20.29 12.16,29.87 16.98,1.71 69.21,-17.65 84.64,-26.63 -13.68,-16.49 -19.76,-16.42 -27.37,-47.48 21.83,-6.02 31.02,-11.77 26.95,-40.56 -25.26,-3.84 -68.58,3.02 -87.94,12.46z"/>
  <path class="fil2" d="M3962 6803.7c9.74,-15.57 14.69,-43.53 21.57,-62.26 17.3,-47.07 65.84,-132.21 79.67,-174.9 -18.09,5.25 -28.87,18.56 -39.26,39.18 -9.87,19.58 -4.8,34.1 -18,54.52 -30.6,47.34 -89.58,3.86 -91.05,54.92 12.69,11.41 23.48,13.62 29.72,18.02 2.16,31.68 -11.87,26.64 -31.47,40.94l6.81 27.72c42.41,7.31 27.98,-11.78 42,1.84z"/>
  <path class="fil6" d="M3628.92 5665.06c-14.11,84.5 4.02,291.19 23.42,373.68l1.26 6.11c9.54,-42.35 6.12,-104.33 6.32,-149.44 0.2,-86.73 -12.86,-177.29 -26.99,-254.57l-4.02 24.21z"/>
  <path class="fil9" d="M4561.09 6197.17l66.1 -21.59c-11.66,22.43 -45.7,49.51 -53.78,94.03 30.51,-12.92 23.39,-46.63 77.97,-48.59 55.12,-1.98 52.29,15.22 89.55,-22.2l2.26 -7.96 -51.69 -48.77c-13.4,23.53 -13.98,-4.18 -35.4,41.32 -10.46,-13.98 -1.74,-23.88 -47.59,-10.67 -18.66,5.37 -35.26,10.28 -47.43,24.43z"/>
  <path class="fil6" d="M3288.91 5018.83l4.79 -1.76c-1.02,-20.23 -18.82,-30.03 -39.75,-59.36 -57.31,-80.33 -63.31,-180.47 28.7,-204.52l26.73 -7.17c-81.5,-15.48 -135.54,37.99 -126.14,120.04 10.87,94.84 92.01,129.78 105.67,152.78z"/>
  <path class="fil1" d="M4014.26 4490.17c6.32,-21.99 50.27,-53.07 76.63,-65.86 52.31,-25.37 72.94,-16.3 130.54,-22.99 -22.85,-27.55 -90.04,-50.35 -136.57,-28.87 -33.88,15.64 -73.98,69.07 -70.59,117.72z"/>
  <path class="fil9" d="M4543.56 4202.69c24.19,1.4 22.35,7.2 17.17,30.01 37.87,-2.45 80.63,-8.63 122.04,-7.66 21.74,0.51 38.48,3.7 58.72,4.18 7.87,0.18 21.3,0.16 28.87,-1.07 16.52,-2.7 8.91,2.85 21.65,-13.11 -3.29,-28.13 -15.68,-19.96 -46.08,-21.2 -88.63,-3.63 -88.39,-1.41 -168.84,4.62l-33.53 4.23z"/>
  <path class="fil9" d="M4503.92 4897.76c-3.56,14.95 -32.35,65.79 51.6,57.52 48.13,-4.74 78.08,-5.57 106.28,-27.3 0.17,-23.38 -5.49,-13.56 -3.61,-34.34 -67.44,19.46 -84.42,19.8 -154.27,4.12z"/>
  <path class="fil0" d="M3301.46 5028.63c-17.78,-7.17 -6.32,0.96 -7.76,-11.56l-4.79 1.76 -29.1 2.21c10.36,94.56 158.69,87.07 148.63,-14.93l-17.43 15.82c-0.86,0.6 -1.95,1.33 -2.85,1.9 -29.2,18.07 -59.97,11.78 -86.7,4.8z"/>
  <path class="fil12" d="M3832.04 2277.24c19.04,-2.49 3.24,-1.26 9.06,3.24l-2.09 20.87c50.11,-7.69 81.4,-20.06 151.67,-31.01l38.6 -8c1.4,-0.35 2.56,-0.61 3.88,-0.99l10.95 -4.23c-18.72,-3.67 -20.37,-5.39 -24.8,-23.14 -16.99,6.41 -67.93,11.38 -95.07,18.33 -23.21,5.95 -78.75,12.94 -92.19,24.94z"/>
  <path class="fil2" d="M4222.8 6032.66c12.5,-24.59 4.77,-76.67 -6.71,-99.22 -12.98,-25.48 -42.41,-41.72 -63.45,-55.2 15.74,80.73 55.27,43.58 12.01,152.87 21.63,-4.76 42.9,-25.32 56.59,-39.78l1.57 41.33z"/>
  <path class="fil3" d="M4569.79 6748.3c14.69,-10.69 30.98,-11.08 48.08,-25.55 -23.06,-3.35 -51.08,4.3 -71.98,-3.94 -42.23,9.13 -141.44,-27.77 -169.06,-17.65 31.13,14.63 42.46,27.3 83.17,37.39 55.24,13.71 58.27,6.93 109.8,9.75z"/>
  <path class="fil6" d="M4503.92 4897.76c69.85,15.69 86.83,15.34 154.27,-4.12l35.94 -21.76c-10.92,-5.75 -86.93,6.83 -110.54,7.46 -43.59,1.17 -79.94,-5.05 -121.46,-6.56 15.67,17.39 22.37,14.17 41.79,24.97z"/>
  <path class="fil12" d="M4255.41 4467.83c-57.98,9.23 -44.72,-64.61 7.13,-37.94 0.48,20.41 1.22,1.82 -2.44,21.55 -2.07,11.14 -0.1,5.83 -4.69,16.4zm-40.97 21.35c19.15,0.72 22.98,2.61 20.37,21.78 14.07,4.86 12.45,-0.88 17.59,17.2 5.59,-5.71 12.52,-16.38 14.96,-26.75 3.39,-14.39 -3.73,-30.31 8.34,-44.13 2.61,21.6 11.83,39.79 24.86,54.63 -3.34,-28.37 -30.18,-93.7 -57.08,-112.77 -13.94,10.31 -32.22,6.39 -41.17,33.31 -10.68,32.12 12.52,34.95 12.13,56.73z"/>
  <path class="fil6" d="M4521.26 4554.65c-6.99,12.45 -5.83,8.72 -14.86,19.42 -7.55,8.96 -7.44,8.58 -12.79,18.38 -7.61,13.94 -12.32,28.37 -15.8,45.27 23.22,-13.69 41.96,-46.57 67.69,-61.14 32.67,-18.52 74.81,-1.74 90.06,22.38 0.91,-25.99 -17.73,-44.59 -37.31,-52.79 -35.73,-14.95 -51.9,2.81 -76.98,8.48z"/>
  <path class="fil13" d="M4198.89 5784.82c-6.01,45.75 58.32,31.92 63.45,130.83 12.66,-30.12 27.15,-51.95 5.47,-92.26 -10.6,-19.7 -36.98,-55.99 -68.92,-38.57z"/>
  <path class="fil6" d="M3821.52 6848.56l8.59 -5.52 -129.8 -24.78 -59.11 -9.53c3.5,0.63 -0.64,-0.97 5.72,4.99 49.04,46.05 110.27,52.96 174.59,34.84z"/>
  <path class="fil9" d="M4477.81 4637.71c3.48,-16.91 8.19,-31.33 15.8,-45.27 5.35,-9.8 5.24,-9.42 12.79,-18.38 9.03,-10.7 7.87,-6.96 14.86,-19.42 -67.94,-59.59 -99.58,71.94 -43.45,83.07z"/>
  <path class="fil13" d="M4156.82 5674.09c12.26,-17.63 5.82,-43.33 -12.11,-47.94 -15.8,-4.06 -32.39,13.12 -41.57,22.81 -39.19,41.39 29.62,59.74 53.69,25.13z"/>
  <path class="fil6" d="M3497.02 5854.71c53.09,-28.16 91.53,-49.55 117.05,-96.86 -30.46,7.99 -53.78,23.19 -74.8,39.15 -13.57,10.3 -17.93,18.28 -29.64,28.69 -37.36,33.2 -14.17,28.15 -12.61,29.02z"/>
  <path class="fil13" d="M4015.38 5824.67c-14.07,10.61 -20.91,21.52 -31.74,38 -13.26,20.17 -13.85,36.46 -1.06,55.24 26.57,-37.19 49.79,-81.64 76.24,-121.01 -16.46,11.33 -22.59,16.94 -43.43,27.76z"/>
  <path class="fil11" d="M3999.06 5606.47c-3.64,-22.05 -1.85,-4.37 3.21,-11.57l76.41 31.81c15.93,-9.73 29.39,-19.68 39.93,-33.44l-128.52 -4.87 -0.15 8.32c5.15,14.54 2.82,5.37 9.12,9.75z"/>
  <path class="fil12" d="M4135.88 4453.19l5.59 26.12 12.35 6.5c0.91,0.45 2.2,0.94 3.13,1.43l23.4 21.74c10.94,12.95 28.44,29.44 45.87,9.35 -17.33,1.96 -18.07,-1.8 -20.73,-17.7 -14.55,-2.71 -16.05,-10.18 -29.04,-19.68 0.41,-1.39 1.48,-4.71 1.78,-3.96 0.29,0.73 1.36,-2.91 1.72,-3.79 10.92,-26.4 -5.02,-14.39 -18.65,-17.5 -5.59,-1.28 -9.87,-6.46 -14.83,-9.52 -9.02,13.58 2.41,-0.39 -10.59,7.02z"/>
  <path class="fil12" d="M4260.44 6936.7c15.25,-6.29 20.38,-9.63 22.29,-28.65 1.09,-16.09 -2.37,-28.78 -12.13,-37.63 -17,-15.41 -26.13,-6.66 -46.67,-11.78l25.25 25.68c-9.73,37.98 -7.78,26.78 11.27,52.37z"/>
  <path class="fil12" d="M4118.07 4532.12c6.96,-4 0.26,2.52 9,-17.7 0.34,-0.78 0.95,-2.32 1.65,-3.36l31.96 39.85c15.29,16.35 -1.54,7.06 18.17,9.83 15.89,-10.83 -3,-23.97 -11.05,-34.67 -13.05,-17.35 -20.65,-16.65 -26.04,-39.16 -0.79,0.99 -1.85,1.35 -2.21,3.08l-10.92 12.08c-6.18,3.98 -16.61,5.85 -24.04,9.27 4.69,13.98 -1.7,1.94 3.91,10.9 5.24,8.36 3.41,5.26 9.56,9.88z"/>
  <path class="fil0" d="M4585.88 6084.21c-3.32,64.24 60.01,36.22 39.99,2.79 -0.49,-0.81 -1.29,-1.92 -1.83,-2.71l-17.91 -16.72c-8.87,4.8 -12.66,10.1 -20.25,16.64z"/>
  <path class="fil6" d="M4255.41 4467.83c4.59,-10.57 2.62,-5.26 4.69,-16.4 3.67,-19.72 2.93,-1.14 2.44,-21.55 -51.85,-26.66 -65.11,47.18 -7.13,37.94z"/>
  <path class="fil2" d="M3394.11 6156.74c-5.99,3.26 -2.13,-3.75 -12.13,10.44 -2.16,3.06 -4.37,7.98 -6.28,11.93 -5.4,11.19 -6.85,15.77 -9.54,27.77l43.57 -28.02c-6.11,-12.14 -5.79,-11.41 -15.62,-22.11z"/>
  <path class="fil0" d="M4205.49 4500.63c2.66,15.9 3.4,19.66 20.73,17.7l8.59 -7.37c2.61,-19.16 -1.22,-21.05 -20.37,-21.78l-8.95 11.45z"/>
  <path class="fil0" d="M4705.05 4425.71c3.92,15.43 32.15,11.39 27.16,-8.24 -4.37,-17.16 -32.78,-13.91 -27.16,8.24z"/>
 </g>
</svg>
